<svg width="153" height="52" viewBox="0 0 153 52" fill="none" xmlns="http://www.w3.org/2000/svg">
<path d="M1 21.6251L13.136 1.00001L10.4317 15.5965L13.3695 15.5493L16.3074 15.5022L10.6282 27.8392L16.3074 27.7481L4.38892 48.1466L7.3179 33.7696L4.15895 33.8203L1 33.871L7.12295 21.6251H1Z" fill="#0B7FD3" stroke="#0B7FD3"/>
<path d="M30.472 11.368H25.096V8.2H39.736V11.368H34.36V25H30.472V11.368ZM57.2359 8.2V25H53.3479V18.112H45.7159V25H41.8279V8.2H45.7159V14.824H53.3479V8.2H57.2359ZM68.6748 25.288C66.2748 25.288 64.4028 24.624 63.0588 23.296C61.7308 21.968 61.0668 20.072 61.0668 17.608V8.2H64.9548V17.464C64.9548 20.472 66.2028 21.976 68.6988 21.976C69.9148 21.976 70.8428 21.616 71.4828 20.896C72.1228 20.16 72.4427 19.016 72.4427 17.464V8.2H76.2828V17.608C76.2828 20.072 75.6108 21.968 74.2668 23.296C72.9388 24.624 71.0748 25.288 68.6748 25.288ZM95.5328 8.2V25H92.3408L83.9648 14.8V25H80.1248V8.2H83.3408L91.6928 18.4V8.2H95.5328ZM99.5076 8.2H107.14C108.964 8.2 110.572 8.552 111.964 9.256C113.372 9.944 114.46 10.92 115.228 12.184C116.012 13.448 116.404 14.92 116.404 16.6C116.404 18.28 116.012 19.752 115.228 21.016C114.46 22.28 113.372 23.264 111.964 23.968C110.572 24.656 108.964 25 107.14 25H99.5076V8.2ZM106.948 21.808C108.628 21.808 109.964 21.344 110.956 20.416C111.964 19.472 112.468 18.2 112.468 16.6C112.468 15 111.964 13.736 110.956 12.808C109.964 11.864 108.628 11.392 106.948 11.392H103.396V21.808H106.948ZM132.344 21.88V25H119.336V8.2H132.032V11.32H123.2V14.968H131V17.992H123.2V21.88H132.344ZM146.141 25L142.901 20.32H142.709H139.325V25H135.437V8.2H142.709C144.197 8.2 145.485 8.448 146.573 8.944C147.677 9.44 148.525 10.144 149.117 11.056C149.709 11.968 150.005 13.048 150.005 14.296C150.005 15.544 149.701 16.624 149.093 17.536C148.501 18.432 147.653 19.12 146.549 19.6L150.317 25H146.141ZM146.069 14.296C146.069 13.352 145.765 12.632 145.157 12.136C144.549 11.624 143.661 11.368 142.493 11.368H139.325V17.224H142.493C143.661 17.224 144.549 16.968 145.157 16.456C145.765 15.944 146.069 15.224 146.069 14.296Z" fill="white"/>
<path d="M26.162 29.2H30.614C31.678 29.2 32.616 29.4053 33.428 29.816C34.2493 30.2173 34.884 30.7867 35.332 31.524C35.7893 32.2613 36.018 33.12 36.018 34.1C36.018 35.08 35.7893 35.9387 35.332 36.676C34.884 37.4133 34.2493 37.9873 33.428 38.398C32.616 38.7993 31.678 39 30.614 39H26.162V29.2ZM30.502 37.138C31.482 37.138 32.2613 36.8673 32.84 36.326C33.428 35.7753 33.722 35.0333 33.722 34.1C33.722 33.1667 33.428 32.4293 32.84 31.888C32.2613 31.3373 31.482 31.062 30.502 31.062H28.43V37.138H30.502ZM45.3164 37.18V39H37.7284V29.2H45.1344V31.02H39.9824V33.148H44.5324V34.912H39.9824V37.18H45.3164ZM47.121 29.2H49.389V37.152H54.303V39H47.121V29.2ZM55.5702 29.2H57.8382V39H55.5702V29.2ZM69.5313 29.2L65.2893 39H63.0493L58.8213 29.2H61.2713L64.2533 36.2L67.2773 29.2H69.5313ZM77.9375 37.18V39H70.3495V29.2H77.7555V31.02H72.6035V33.148H77.1535V34.912H72.6035V37.18H77.9375ZM85.9861 39L84.0961 36.27H83.9841H82.0101V39H79.7421V29.2H83.9841C84.8521 29.2 85.6034 29.3447 86.2381 29.634C86.8821 29.9233 87.3767 30.334 87.7221 30.866C88.0674 31.398 88.2401 32.028 88.2401 32.756C88.2401 33.484 88.0627 34.114 87.7081 34.646C87.3627 35.1687 86.8681 35.57 86.2241 35.85L88.4221 39H85.9861ZM85.9441 32.756C85.9441 32.2053 85.7667 31.7853 85.4121 31.496C85.0574 31.1973 84.5394 31.048 83.8581 31.048H82.0101V34.464H83.8581C84.5394 34.464 85.0574 34.3147 85.4121 34.016C85.7667 33.7173 85.9441 33.2973 85.9441 32.756ZM94.6043 35.528V39H92.3363V35.5L88.5423 29.2H90.9503L93.5683 33.554L96.1863 29.2H98.4123L94.6043 35.528Z" fill="white"/>
</svg>
